HIERARCHY
ROOT Hips
{
	OFFSET 0.00000 0.00000 0.00000
	CHANNELS 6 Xposition Yposition Zposition Zrotation Yrotation Xrotation 
	JOINT RightUpLegDummy
	{
		OFFSET 0 0 0
		CHANNELS 3 Zrotation Yrotation Xrotation
		JOINT RightUpLeg
		{
			OFFSET -3.52197 -3.41223 0.04002
			CHANNELS 3 Zrotation Yrotation Xrotation
			JOINT RightLeg
			{
				OFFSET 0.00006 -17.42390 1.60435
				CHANNELS 3 Zrotation Yrotation Xrotation
				JOINT RightFoot
				{
					OFFSET 0.06153 -16.50078 -1.63901
					CHANNELS 3 Zrotation Yrotation Xrotation
					JOINT RightToes
					{
						OFFSET 0.00298 -1.73825 3.34613
						CHANNELS 3 Zrotation Yrotation Xrotation
						End Site
						{
							OFFSET 0.00480 -0.05416 3.85043
						}
					}
				}
			}
		}
	}
	JOINT SpineDummy
	{
		OFFSET 0 0 0
		CHANNELS 3 Zrotation Yrotation Xrotation
		JOINT Spine
		{
			OFFSET 0.00000 4.68130 0.00000
			CHANNELS 3 Zrotation Yrotation Xrotation
			JOINT Spine1
			{
				OFFSET -0.00000 10.10138 0.05002
				CHANNELS 3 Zrotation Yrotation Xrotation
				JOINT HEadDummy
				{
					OFFSET 0 0 0
					CHANNELS 3 Zrotation Yrotation Xrotation
					JOINT Head
					{
						OFFSET -0.00000 3.43865 0.00438
						CHANNELS 3 Zrotation Yrotation Xrotation
						End Site
						{
							OFFSET -0.11417 5.02924 0.98962
						}
					}
				}
				JOINT LeftShoulder1Dummy
				{
					OFFSET 0 0 0
					CHANNELS 3 Zrotation Yrotation Xrotation
					JOINT LeftShoulder1
					{
						OFFSET 3.53937 -0.14262 -0.08662
						CHANNELS 3 Zrotation Yrotation Xrotation
						JOINT LeftArm
						{
							OFFSET 4.04833 -0.00133 0.12681
							CHANNELS 3 Zrotation Yrotation Xrotation
							JOINT LeftForeArm
							{
								OFFSET 10.33880 -0.01036 -0.55515
								CHANNELS 3 Zrotation Yrotation Xrotation
								JOINT LeftHand
								{
									OFFSET 8.69677 0.07543 0.40060
									CHANNELS 3 Zrotation Yrotation Xrotation
									End Site
									{
										OFFSET 5.28377 -0.21905 0.59205
									}
								}
							}
						}
					}
				}
				JOINT RightShoulderDummy
				{
					OFFSET 0 0 0
					CHANNELS 3 Zrotation Yrotation Xrotation
					JOINT RightShoulder
					{
						OFFSET -3.53937 -0.14262 -0.08660
						CHANNELS 3 Zrotation Yrotation Xrotation
						JOINT RightArm
						{
							OFFSET -4.04833 -0.00133 0.12683
							CHANNELS 3 Zrotation Yrotation Xrotation
							JOINT RightForeArm
							{
								OFFSET -10.37987 -0.01039 -0.55511
								CHANNELS 3 Zrotation Yrotation Xrotation
								JOINT RightHand
								{
									OFFSET -8.67398 0.07538 0.40058
									CHANNELS 3 Zrotation Yrotation Xrotation
									End Site
									{
										OFFSET -5.24810 -0.21916 0.59204
									}
								}
							}
						}
					}
				}
			}
		}
	}
	JOINT LeftUpLegDummy
	{
		OFFSET 0 0 0
		CHANNELS 3 Zrotation Yrotation Xrotation
		JOINT LeftUpLeg
		{
			OFFSET 3.52197 -3.41223 0.04002
			CHANNELS 3 Zrotation Yrotation Xrotation
			JOINT LeftLeg
			{
				OFFSET -0.00012 -17.42399 1.60337
				CHANNELS 3 Zrotation Yrotation Xrotation
				JOINT LeftFoot
				{
					OFFSET -0.09972 -16.50070 -1.63802
					CHANNELS 3 Zrotation Yrotation Xrotation
					JOINT LeftToes
					{
						OFFSET -0.01575 -1.73823 3.34611
						CHANNELS 3 Zrotation Yrotation Xrotation
						End Site
						{
							OFFSET 0.03150 -0.01868 3.85031
						}
					}
				}
			}
		}
	}
}
MOTION
Frames: 17
Frame Time: 0.033333
-15.5156 38.9196 73.3399 -176.4870 32.7809 177.7700 0.0000 0.0000 0.0000 2.9713 -1.3723 -9.0128 1.0421 0.7271 17.9861 -0.8409 0.0148 -6.2145 0.0000 -0.0000 -0.0000 0.0000 0.0000 0.0000 2.7420 0.0396 7.5573 2.6813 -0.4352 -0.1954 -0.0000 0.0000 -0.0000 2.3525 5.3986 -0.1487 -0.0000 0.0000 -0.0000 -34.2299 -2.7697 2.5260 -44.2132 -14.1537 -17.9424 -10.1976 5.0541 50.6933 16.0053 -3.1960 -1.1604 -0.0000 0.0000 -0.0000 35.0859 5.2130 3.5835 39.6873 4.1423 -17.4052 10.3881 3.1427 20.7817 -11.4513 2.0531 -0.7174 0.0000 0.0000 0.0000 13.0979 2.7794 -0.9664 -3.1102 -4.6566 31.1040 -7.0440 0.2256 -8.4059 0.0000 0.0000 -0.0000
-15.0424 38.7877 73.3357 -176.7220 33.1743 176.8940 0.0000 0.0000 0.0000 3.5086 -1.1931 -8.6867 0.9706 0.7284 19.8413 -1.8941 0.0380 -7.4030 0.0000 -0.0000 -0.0000 0.0000 0.0000 0.0000 3.3330 0.2099 8.2817 2.0462 -0.1147 -0.1323 -0.0000 0.0000 -0.0000 1.8747 5.7202 -0.1516 -0.0000 0.0000 -0.0000 -34.4410 -2.7685 2.5387 -45.2316 -14.9506 -17.0642 -10.4341 5.0711 50.0401 17.4749 -2.6722 -1.1959 -0.0000 0.0000 -0.0000 34.9319 5.1909 3.5608 39.4220 4.5574 -16.7278 10.5736 3.6742 21.1935 -11.3051 2.3583 -0.7355 0.0000 0.0000 0.0000 12.7657 1.7936 -3.0381 -1.4307 -1.9743 36.8415 -4.0229 0.2189 -6.0918 0.0000 0.0000 -0.0000
-14.5998 38.7060 73.3148 -176.8900 33.6007 176.1540 0.0000 0.0000 0.0000 4.0602 -0.9758 -8.0950 0.8854 0.6864 20.9247 -2.8688 0.0467 -8.2612 0.0000 -0.0000 -0.0000 0.0000 0.0000 0.0000 3.8964 0.3414 8.7883 1.5359 0.1416 -0.0161 -0.0000 0.0000 -0.0000 1.3952 6.6961 0.0769 -0.0000 0.0000 -0.0000 -34.6173 -2.7681 2.5498 -45.8000 -15.9873 -17.2613 -9.9259 5.0468 51.0338 19.0026 -2.4192 -1.2648 -0.0000 0.0000 -0.0000 34.9425 5.1939 3.5630 38.8547 4.9728 -16.0338 10.7936 4.1615 21.2511 -11.6303 2.3456 -0.7560 0.0000 0.0000 0.0000 12.1982 0.9876 -5.0134 0.5385 0.1370 41.6771 -0.7968 0.0783 -4.8648 0.0000 0.0000 -0.0000
-14.1749 38.6598 73.2730 -177.1230 33.7715 175.6740 0.0000 0.0000 0.0000 4.5005 -0.8394 -7.5778 0.7181 0.4027 21.5572 -3.9574 0.0516 -8.8976 0.0000 -0.0000 -0.0000 0.0000 0.0000 0.0000 4.1761 0.3001 8.8739 1.2522 0.1607 0.0192 -0.0000 0.0000 -0.0000 1.3155 7.1155 0.5997 -0.0000 0.0000 -0.0000 -34.6201 -2.7460 2.5410 -45.7541 -16.9428 -17.6732 -9.4643 5.0226 51.9955 19.5309 -2.6699 -1.3409 -0.0000 0.0000 -0.0000 34.9824 5.2026 3.5701 38.2956 5.3298 -15.5785 10.9463 4.4588 20.9919 -12.1560 2.0519 -0.7629 0.0000 0.0000 0.0000 11.3006 -0.0644 -7.1152 1.7177 1.0681 45.1263 0.5712 0.0025 -5.3938 0.0000 0.0000 -0.0000
-13.7449 38.6362 73.2049 -177.5110 33.8763 175.2520 0.0000 0.0000 0.0000 4.7792 -0.7939 -7.0733 0.5499 0.1498 22.0144 -5.0363 0.0472 -9.4737 0.0000 -0.0000 -0.0000 0.0000 0.0000 0.0000 4.0150 0.2030 8.6464 1.2732 0.0453 0.0700 -0.0000 0.0000 -0.0000 1.3535 7.5032 1.4047 -0.0000 0.0000 -0.0000 -34.4080 -2.7338 2.5226 -45.4104 -17.4281 -17.2216 -9.8920 5.0638 50.4772 18.4023 -3.0050 -1.3130 -0.0000 0.0000 -0.0000 34.9208 5.1942 3.5612 37.9509 5.6359 -15.5149 10.9664 4.4864 20.8560 -12.4293 1.8973 -0.7652 0.0000 0.0000 0.0000 10.0567 -1.3024 -9.0266 1.6777 0.9557 46.7649 0.5384 0.0185 -6.7339 0.0000 0.0000 -0.0000
-13.3041 38.6383 73.1191 -177.9390 34.2876 174.7660 0.0000 0.0000 0.0000 4.9999 -0.7835 -6.3611 0.5871 0.3475 22.2243 -5.7856 0.0307 -10.0061 0.0000 -0.0000 -0.0000 0.0000 0.0000 0.0000 3.6282 0.2423 8.3507 1.4994 0.0272 0.2369 -0.0000 0.0000 -0.0000 1.3273 8.1763 2.1739 -0.0000 0.0000 -0.0000 -34.1309 -2.7558 2.5139 -45.1169 -17.4615 -16.0593 -10.8910 5.1409 47.4662 16.2562 -3.1425 -1.1727 -0.0000 0.0000 -0.0000 34.7750 5.1686 3.5379 37.7934 5.8705 -15.7372 10.8956 4.3616 20.9624 -12.2874 2.0397 -0.7701 0.0000 0.0000 0.0000 8.6780 -2.3724 -10.4091 1.3025 0.6728 46.4880 0.5285 0.0300 -7.7356 0.0000 0.0000 -0.0000
-12.8734 38.6712 73.0356 -178.2280 34.9673 174.3900 0.0000 0.0000 0.0000 5.2870 -0.7686 -5.4709 0.8345 0.9003 21.9751 -6.2267 0.0170 -10.3305 0.0000 -0.0000 -0.0000 0.0000 0.0000 0.0000 3.3109 0.4081 8.1014 1.8041 0.1304 0.3934 -0.0000 0.0000 -0.0000 1.1688 8.8019 2.6408 -0.0000 0.0000 -0.0000 -33.9699 -2.7674 2.5084 -44.9524 -17.4281 -15.1486 -11.5075 5.1691 46.1815 14.8538 -3.3194 -1.0891 -0.0000 0.0000 -0.0000 34.6481 5.1447 3.5170 37.6871 5.9354 -15.9220 10.8365 4.2930 21.0618 -12.0015 2.2268 -0.7697 0.0000 0.0000 0.0000 7.4242 -3.2330 -11.4411 1.6803 1.0573 44.5272 0.7791 0.0299 -8.3661 0.0000 0.0000 -0.0000
-12.4701 38.7266 72.9641 -178.3910 35.6347 174.2350 0.0000 0.0000 0.0000 5.6144 -0.7683 -4.5640 1.1247 1.4311 21.2854 -6.6655 0.0175 -10.3843 0.0000 -0.0000 -0.0000 0.0000 0.0000 0.0000 3.0785 0.5706 7.9078 2.1255 0.2328 0.3777 -0.0000 0.0000 -0.0000 0.9569 9.2080 2.7222 -0.0000 0.0000 -0.0000 -33.9187 -2.7247 2.4881 -44.8916 -17.5200 -14.8328 -11.5411 5.1420 47.1312 15.2542 -3.6017 -1.1555 -0.0000 0.0000 -0.0000 34.6493 5.1435 3.5166 37.5454 5.7845 -15.9284 10.8479 4.2779 21.1117 -11.9582 2.2333 -0.7674 0.0000 0.0000 0.0000 6.3605 -4.0870 -12.3737 2.6429 2.1176 41.1264 0.8793 0.0359 -8.9752 0.0000 0.0000 -0.0000
-12.0872 38.8025 72.8961 -178.5770 36.2691 174.1530 0.0000 0.0000 0.0000 5.8866 -0.7682 -3.5925 1.3728 1.8794 20.2343 -7.2199 0.0324 -10.2311 0.0000 -0.0000 -0.0000 0.0000 0.0000 0.0000 2.8348 0.7129 7.7258 2.3631 0.3309 0.2996 -0.0000 0.0000 -0.0000 0.8137 9.5642 2.4965 -0.0000 0.0000 -0.0000 -33.8632 -2.6635 2.4602 -44.9196 -17.5894 -14.7731 -11.4766 5.1236 47.8068 16.5592 -3.5574 -1.2513 -0.0000 0.0000 -0.0000 34.8172 5.1696 3.5420 37.4173 5.5464 -15.9082 10.8841 4.0572 21.2739 -12.1579 2.1290 -0.7705 0.0000 0.0000 0.0000 5.3892 -5.0218 -13.0930 3.2613 3.2044 36.3862 1.2389 0.0309 -9.1219 0.0000 0.0000 -0.0000
-11.7213 38.9053 72.8248 -178.7950 36.9863 174.0720 0.0000 0.0000 0.0000 6.1312 -0.6919 -2.4706 1.5562 2.3885 18.8075 -7.8136 0.0645 -9.8660 0.0000 -0.0000 -0.0000 0.0000 0.0000 0.0000 2.6643 0.8722 7.4661 2.4059 0.4800 0.3818 -0.0000 0.0000 -0.0000 0.7691 9.9577 2.0349 -0.0000 0.0000 -0.0000 -33.8205 -2.6418 2.4489 -44.9457 -17.5530 -14.8181 -11.5148 5.1428 47.1129 17.1787 -3.2345 -1.2548 -0.0000 0.0000 -0.0000 35.0403 5.2032 3.5755 37.4469 5.4128 -16.0770 10.8658 3.3974 21.6279 -12.2177 2.0857 -0.7702 0.0000 0.0000 0.0000 4.4715 -6.1702 -13.5305 3.2468 3.9546 30.5859 2.5685 -0.0257 -8.1229 0.0000 0.0000 -0.0000
-11.3894 39.0206 72.7599 -178.9230 37.6836 174.1430 0.0000 0.0000 0.0000 6.4493 -0.5139 -1.3944 1.6251 2.8828 17.1626 -8.4600 0.1174 -9.2938 0.0000 -0.0000 -0.0000 0.0000 0.0000 0.0000 2.6830 0.9836 7.1220 2.2994 0.6073 0.5820 -0.0000 0.0000 -0.0000 0.6859 10.2721 1.3567 -0.0000 0.0000 -0.0000 -33.8949 -2.6493 2.4545 -44.8857 -17.5141 -15.1034 -11.4368 5.1612 46.4946 16.8382 -3.0847 -1.2081 -0.0000 0.0000 -0.0000 35.1550 5.2206 3.5928 37.7024 5.4258 -16.4401 10.7746 2.3502 22.1747 -12.0055 2.1400 -0.7616 0.0000 0.0000 0.0000 3.6463 -7.6345 -14.0278 2.9866 4.5806 24.4764 4.4486 -0.1645 -6.1752 0.0000 0.0000 -0.0000
-11.0986 39.1261 72.7129 -178.9470 38.2389 174.4100 0.0000 0.0000 0.0000 6.8193 -0.2974 -0.5561 1.6045 3.2353 15.5731 -9.1281 0.1839 -8.6417 0.0000 -0.0000 -0.0000 0.0000 0.0000 0.0000 2.7925 0.9955 6.8602 2.2038 0.6338 0.6666 -0.0000 0.0000 -0.0000 0.3788 10.5920 0.4839 -0.0000 0.0000 -0.0000 -34.0366 -2.6426 2.4627 -44.8566 -17.4847 -15.5189 -11.1980 5.1518 46.9401 16.4345 -3.1842 -1.1916 -0.0000 0.0000 -0.0000 35.1651 5.2229 3.5946 38.0790 5.4526 -16.8222 10.6584 1.2123 22.8765 -11.9304 2.1767 -0.7602 0.0000 0.0000 0.0000 2.7560 -8.5671 -14.8736 2.5689 4.9150 18.8938 5.4538 -0.3165 -4.1418 0.0000 0.0000 -0.0000
-10.8340 39.2208 72.6806 -178.9870 38.7736 174.6620 0.0000 0.0000 0.0000 7.1263 -0.1140 0.1795 1.5913 3.5901 14.1116 -9.5514 0.2464 -8.0387 0.0000 -0.0000 -0.0000 0.0000 0.0000 0.0000 2.8289 0.9964 6.8510 2.1861 0.6400 0.5930 -0.0000 0.0000 -0.0000 -0.1760 11.0057 -0.5673 -0.0000 0.0000 -0.0000 -34.1014 -2.6308 2.4620 -45.0379 -17.3636 -15.7121 -11.0404 5.1307 47.7533 16.4902 -3.1906 -1.1966 -0.0000 0.0000 -0.0000 35.2129 5.2283 3.6011 38.4369 5.3591 -17.0891 10.5740 0.2993 23.5129 -12.2757 2.0562 -0.7709 0.0000 0.0000 0.0000 1.1900 -6.9956 -15.8631 1.7741 3.6718 14.2006 4.6659 -0.3405 -2.5841 0.0000 0.0000 -0.0000
-10.5846 39.3000 72.6484 -179.0590 39.3560 174.7710 0.0000 0.0000 0.0000 7.3677 0.0383 0.9349 1.5970 4.0223 12.8506 -9.5811 0.2872 -7.5842 0.0000 -0.0000 -0.0000 0.0000 0.0000 0.0000 2.8416 1.0397 7.0588 2.1700 0.6940 0.5513 -0.0000 0.0000 -0.0000 -0.8725 11.4080 -1.8036 -0.0000 0.0000 -0.0000 -34.1256 -2.6530 2.4724 -45.3559 -17.1815 -15.5877 -11.0715 5.1144 48.3055 16.6985 -2.9734 -1.1824 -0.0000 0.0000 -0.0000 35.3268 5.2414 3.6167 38.7747 5.1464 -17.2083 10.5511 -0.2412 23.7817 -12.6594 1.7780 -0.7676 0.0000 0.0000 0.0000 -1.2325 -2.9121 -16.7596 0.7236 0.9450 10.4533 2.5844 -0.2136 -1.5041 0.0000 0.0000 -0.0000
-10.3507 39.3359 72.6027 -179.0160 39.8115 174.8740 0.0000 0.0000 0.0000 7.6693 0.1722 1.5329 1.5922 4.3064 12.0932 -9.5115 0.2994 -7.4183 0.0000 -0.0000 -0.0000 0.0000 0.0000 0.0000 3.0651 1.0182 7.3244 2.0216 0.7096 0.6623 -0.0000 0.0000 -0.0000 -1.5870 11.7368 -3.2102 -0.0000 0.0000 -0.0000 -34.2515 -2.6957 2.4974 -45.5800 -17.0609 -15.4488 -11.1273 5.1028 48.6803 16.7970 -2.7908 -1.1644 -0.0000 0.0000 -0.0000 35.3985 5.2520 3.6274 39.1630 4.9043 -17.1672 10.5947 -0.4788 23.7077 -12.6271 1.5230 -0.7397 0.0000 0.0000 0.0000 -2.8203 -1.2270 -17.6957 -0.3769 1.4077 7.7732 0.4738 -0.0397 -0.7774 0.0000 0.0000 -0.0000
-10.1231 39.3232 72.5409 -178.7450 40.1868 175.1250 0.0000 0.0000 0.0000 8.1139 0.2754 1.8990 1.6411 4.4646 11.8597 -9.6607 0.2941 -7.5357 0.0000 -0.0000 -0.0000 0.0000 0.0000 0.0000 3.6541 0.9156 7.5718 1.6312 0.6953 0.8659 -0.0000 0.0000 -0.0000 -2.1746 12.0548 -4.6711 -0.0000 0.0000 -0.0000 -34.4213 -2.7076 2.5129 -45.6820 -16.9725 -15.6277 -11.0509 5.1063 48.5922 16.8187 -2.7563 -1.1612 -0.0000 0.0000 -0.0000 35.4244 5.2621 3.6339 39.5578 4.6906 -16.9847 10.6842 -0.6076 23.6905 -12.3455 1.4593 -0.7164 0.0000 0.0000 0.0000 -3.7664 -1.5529 -18.6663 -0.7787 4.6948 6.2394 -1.3094 0.1293 -0.1110 0.0000 0.0000 -0.0000
-9.8675 39.2806 72.4617 -178.3190 40.9747 175.5280 0.0000 0.0000 0.0000 8.6611 0.3935 2.1500 1.8607 5.0016 11.9331 -9.9366 0.2760 -7.8377 0.0000 -0.0000 -0.0000 0.0000 0.0000 0.0000 4.4654 0.9820 7.7193 1.0512 0.9001 1.1231 -0.0000 0.0000 -0.0000 -2.5221 12.3588 -5.9579 -0.0000 0.0000 -0.0000 -34.4573 -2.6822 2.5049 -45.7964 -16.7711 -16.1027 -10.8849 5.1360 47.6339 16.6764 -2.6937 -1.1425 -0.0000 0.0000 -0.0000 35.5280 5.2841 3.6524 39.8156 4.5075 -16.7537 10.7796 -0.7925 24.0140 -12.2112 1.5412 -0.7165 0.0000 0.0000 0.0000 -4.4896 -1.6760 -19.6250 -0.5879 9.1876 5.8725 -3.2463 0.3420 0.8242 0.0000 0.0000 -0.0000
